<?xml version="1.0" encoding="UTF-8" standalone="no"?>
<!-- Created with Inkscape (http://www.inkscape.org/) -->

<svg
   version="1.1"
   id="svg1"
   width="157.31332"
   height="60.062668"
   viewBox="0 0 157.31332 60.062668"
   xmlns="http://www.w3.org/2000/svg"
   xmlns:svg="http://www.w3.org/2000/svg">
  <defs
     id="defs1" />
  <g
     id="g1">
    <path
       id="path1"
       d="M 7.87073,0 C 7.87073,4.34692 4.34692,7.87073 0,7.87073 -4.34692,7.87073 -7.87073,4.34692 -7.87073,0 c 0,-4.34692 3.52381,-7.87073 7.87073,-7.87073 4.34692,0 7.87073,3.52381 7.87073,7.87073 z"
       style="fill:#ffffff;fill-opacity:1;fill-rule:nonzero;stroke:#000000;stroke-width:0.3985;stroke-linecap:butt;stroke-linejoin:miter;stroke-miterlimit:10;stroke-dasharray:none;stroke-opacity:1"
       transform="matrix(1.3333333,0,0,-1.3333333,32.898667,48.517333)" />
    <path
       id="path2"
       d="m 7.1718438,-6.5634844 c 0.011719,-0.046875 0.035156,-0.09375 0.035156,-0.1523437 0,-0.09375 -0.058594,-0.09375 -0.2578125,-0.09375 H 2.753875 c -0.2460937,0 -0.2578125,0.011719 -0.3164062,0.1992187 l -0.5390625,1.7929688 c -0.023437,0.058594 -0.035156,0.1289062 -0.035156,0.140625 0,0.011719 0,0.1171875 0.1171875,0.1171875 0.09375,0 0.1171875,-0.070312 0.1289063,-0.1054688 0.3867187,-1.171875 0.9023437,-1.828125 2.4492187,-1.828125 h 1.6289063 l -5.5664063,6.22265628 c 0,0.0117188 -0.046875,0.15234375 -0.046875,0.17578125 0,0.093749995 0.0703125,0.093749995 0.2578125,0.093749995 h 4.3242188 c 0.2460937,0 0.2578125,-0.011718745 0.3164062,-0.199218745 L 6.17575,-2.4033281 c 0.011719,-0.035156 0.035156,-0.1054688 0.035156,-0.1523438 0,-0.046875 -0.035156,-0.1054687 -0.1289063,-0.1054687 -0.082031,0 -0.09375,0.035156 -0.1640625,0.2460937 -0.4335937,1.359375 -0.9140625,2.07421878 -2.6132812,2.07421878 H 1.6054375 Z m 0,0"
       style="fill:#000000;fill-opacity:1;fill-rule:nonzero;stroke:none"
       aria-label="Z"
       transform="matrix(1.3333333,0,0,1.3333333,27.890667,53.056)" />
    <path
       id="path3"
       d="m 50.98029,0 c 0,4.67242 -3.78766,8.46008 -8.46009,8.46008 -4.67244,0 -8.46008,-3.78766 -8.46008,-8.46008 0,-4.67242 3.78764,-8.46008 8.46008,-8.46008 4.67243,0 8.46009,3.78766 8.46009,8.46008 z"
       style="fill:#ffffff;fill-opacity:1;fill-rule:nonzero;stroke:#000000;stroke-width:0.3985;stroke-linecap:butt;stroke-linejoin:miter;stroke-miterlimit:10;stroke-dasharray:none;stroke-opacity:1"
       transform="matrix(1.3333333,0,0,-1.3333333,32.898667,48.517333)" />
    <path
       id="path4"
       d="M 4.8269297,-4.0908281 3.9948984,-6.0830156 c -0.035156,-0.070312 -0.046875,-0.1171875 -0.046875,-0.1289063 0,-0.058594 0.1640625,-0.2460937 0.5859375,-0.28125 0.09375,-0.011719 0.1992188,-0.023437 0.1992188,-0.1875 0,-0.1289062 -0.1171875,-0.1289062 -0.1523438,-0.1289062 -0.4101562,0 -0.8320312,0.035156 -1.2539062,0.035156 -0.2460938,0 -0.8671875,-0.035156 -1.1132813,-0.035156 -0.058594,0 -0.1875,0 -0.1875,0.1992187 0,0.1171875 0.1054688,0.1171875 0.234375,0.1171875 0.5976563,0 0.65625,0.09375 0.75,0.3164063 l 1.171875,2.7773437 -2.0976562,2.2617188 -0.1289063,0.1054687 c -0.4921875,0.52734378 -0.96093746,0.69140628 -1.46484371,0.72656253 -0.12890625,0 -0.22265625,0 -0.22265625,0.19921875 0,0 0,0.105468745 0.12890625,0.105468745 0.3046875,0 0.63281251,-0.035156245 0.93750001,-0.035156245 0.3632812,0 0.7617187,0.035156245 1.1132812,0.035156245 0.058594,0 0.1757813,0 0.1757813,-0.199218745 0,-0.10546875 -0.09375,-0.10546875 -0.1171875,-0.10546875 -0.082031,-0.0117188 -0.3984375,-0.0351563 -0.3984375,-0.31640625 0,-0.15234375 0.1523437,-0.31640625 0.2695312,-0.44531248 l 1.0195313,-1.078125 0.890625,-0.9726563 1.0078125,2.37890628 c 0.046875,0.10546875 0.046875,0.1171875 0.046875,0.140625 0,0.0820313 -0.1875,0.24609375 -0.5742188,0.29296875 -0.1054687,0 -0.1992187,0.0117188 -0.1992187,0.1875 0,0.117187495 0.1171875,0.117187495 0.1523437,0.117187495 0.28125,0 0.9726563,-0.035156245 1.2539063,-0.035156245 0.2460937,0 0.8554687,0.035156245 1.1015625,0.035156245 0.070312,0 0.1992187,0 0.1992187,-0.187499995 0,-0.1171875 -0.1054687,-0.1171875 -0.1875,-0.1171875 -0.6679687,-0.0117188 -0.6796875,-0.046875 -0.8554687,-0.4453125 C 5.8464609,-1.6767656 5.1784922,-3.2236406 4.9441172,-3.8212969 c 0.6796875,-0.703125 1.734375,-1.8867187 2.0507812,-2.1679687 0.28125,-0.234375 0.6679688,-0.4804688 1.265625,-0.5039063 0.1289063,-0.011719 0.2109375,-0.011719 0.2109375,-0.1992187 0,-0.011719 0,-0.1171875 -0.1289062,-0.1171875 -0.2929688,0 -0.6210938,0.035156 -0.9375,0.035156 -0.3632813,0 -0.7382813,-0.035156 -1.1015625,-0.035156 -0.058594,0 -0.1875,0 -0.1875,0.1992187 0,0.070312 0.046875,0.1054688 0.1171875,0.1171875 0.09375,0.011719 0.3984375,0.023437 0.3984375,0.3046875 0,0.140625 -0.1054688,0.2695313 -0.1875,0.3632813 z m 0,0"
       style="fill:#000000;fill-opacity:1;fill-rule:nonzero;stroke:none"
       aria-label="X"
       transform="matrix(1.3333333,0,0,1.3333333,83.568,53.056)" />
    <path
       id="path5"
       d="m 93.11304,0 c 0,4.45844 -3.61418,8.0726 -8.07262,8.0726 -4.45843,0 -8.07262,-3.61416 -8.07262,-8.0726 0,-4.45844 3.61419,-8.0726 8.07262,-8.0726 4.45844,0 8.07262,3.61416 8.07262,8.0726 z"
       style="fill:#ffffff;fill-opacity:1;fill-rule:nonzero;stroke:#000000;stroke-width:0.3985;stroke-linecap:butt;stroke-linejoin:miter;stroke-miterlimit:10;stroke-dasharray:none;stroke-opacity:1"
       transform="matrix(1.3333333,0,0,-1.3333333,32.898667,48.517333)" />
    <path
       id="path6"
       d="m 5.94125,-5.6728594 0.140625,-0.140625 c 0.3046875,-0.2929687 0.6328125,-0.6328125 1.3125,-0.6796875 0.1054687,-0.011719 0.1992187,-0.011719 0.1992187,-0.1875 0,-0.082031 -0.058594,-0.1289062 -0.1289062,-0.1289062 -0.2578125,0 -0.5507813,0.035156 -0.8203125,0.035156 -0.328125,0 -0.6796875,-0.035156 -0.9960938,-0.035156 -0.058594,0 -0.1875,0 -0.1875,0.1992187 0,0.1054688 0.09375,0.1171875 0.1523438,0.1171875 0.070312,0 0.3515625,0.011719 0.3515625,0.2226563 0,0.1757812 -0.2226563,0.4335937 -0.2695313,0.4804687 l -2.3085937,2.6601563 -1.0898438,-2.953125 c -0.070312,-0.140625 -0.070312,-0.1640625 -0.070312,-0.1757813 0,-0.234375 0.4921875,-0.234375 0.5976563,-0.234375 0.1289062,0 0.234375,0 0.234375,-0.1992187 0,-0.1171875 -0.1171875,-0.1171875 -0.1523438,-0.1171875 -0.28125,0 -0.9726562,0.035156 -1.2539062,0.035156 -0.2460938,0 -0.8671875,-0.035156 -1.11328125,-0.035156 -0.0585938,0 -0.1875,0 -0.1875,0.1992187 0,0.1171875 0.09375,0.1171875 0.22265625,0.1171875 0.5976562,0 0.6445312,0.082031 0.7265625,0.3398438 l 1.2304687,3.2695312 c 0.011719,0.035156 0.035156,0.140625 0.035156,0.1757813 0,0.023437 -0.3984375,1.6289062 -0.4453125,1.80468748 -0.1289063,0.55078125 -0.140625,0.5859375 -0.9375,0.59765625 -0.1875,0 -0.26953125,0 -0.26953125,0.19921875 0,0.105468745 0.11718745,0.105468745 0.14062495,0.105468745 0.28125,0 0.9726563,-0.035156245 1.2539063,-0.035156245 0.28125,0 0.9960937,0.035156245 1.2773437,0.035156245 0.070312,0 0.1875,0 0.1875,-0.199218745 0,-0.10546875 -0.082031,-0.10546875 -0.28125,-0.10546875 -0.011719,0 -0.1992187,0 -0.375,-0.0234375 C 2.9060937,-0.35254687 2.8475,-0.36426562 2.8475,-0.49317187 c 0,-0.0703125 0.09375,-0.41015625 0.140625,-0.62109373 l 0.3515625,-1.40625 c 0.046875,-0.1875 0.058594,-0.2226563 0.140625,-0.3046875 z m 0,0"
       style="fill:#000000;fill-opacity:1;fill-rule:nonzero;stroke:none"
       aria-label="Y"
       transform="matrix(1.3333333,0,0,1.3333333,140.95333,53.056)" />
    <path
       id="path7"
       d="m 71.62257,28.3468 c 0,4.33121 -3.51106,7.84227 -7.84227,7.84227 -4.3312,0 -7.84227,-3.51106 -7.84227,-7.84227 0,-4.3312 3.51107,-7.84227 7.84227,-7.84227 4.33121,0 7.84227,3.51107 7.84227,7.84227 z"
       style="fill:#ffffff;fill-opacity:1;fill-rule:nonzero;stroke:#000000;stroke-width:0.3985;stroke-linecap:butt;stroke-linejoin:miter;stroke-miterlimit:10;stroke-dasharray:none;stroke-opacity:1"
       transform="matrix(1.3333333,0,0,-1.3333333,32.898667,48.517333)" />
    <path
       id="path8"
       d="m 1.7810234,-1.1471484 c -0.3984375,0.66796871 -0.78515621,0.80859371 -1.21874996,0.84374996 -0.12890625,0 -0.2109375,0 -0.2109375,0.19921875 0,0.05859375 0.046875,0.10546875 0.12890625,0.10546875 0.26953125,0 0.57421871,-0.03515625 0.85546871,-0.03515625 0.328125,0 0.6796875,0.03515625 0.9960938,0.03515625 0.058594,0 0.1875,0 0.1875,-0.1875 0,-0.1171875 -0.09375,-0.1171875 -0.1640625,-0.1171875 -0.2226563,-0.0234375 -0.4570313,-0.10546875 -0.4570313,-0.3515625 0,-0.1171875 0.058594,-0.234375 0.1289063,-0.37499996 l 0.7617187,-1.265625 h 2.4960938 c 0.023437,0.1992187 0.1640625,1.55859371 0.1640625,1.66406246 0,0.29296875 -0.515625,0.328125 -0.7148438,0.328125 -0.140625,0 -0.2460937,0 -0.2460937,0.19921875 0,0.10546875 0.1289062,0.10546875 0.140625,0.10546875 0.4101562,0 0.84375,-0.03515625 1.2539062,-0.03515625 0.2460938,0 0.8671875,0.03515625 1.125,0.03515625 0.058594,0 0.1757813,0 0.1757813,-0.19921875 0,-0.10546875 -0.1054688,-0.10546875 -0.234375,-0.10546875 -0.609375,0 -0.609375,-0.0703125 -0.6445313,-0.36328125 L 5.6950859,-6.8893359 c -0.011719,-0.1992188 -0.011719,-0.2460938 -0.1875,-0.2460938 -0.1640625,0 -0.1992187,0.070312 -0.2578125,0.1757813 z m 1.1953125,-1.4648438 1.96875,-3.28125 0.3164063,3.28125 z m 0,0"
       style="fill:#000000;fill-opacity:1;fill-rule:nonzero;stroke:none"
       aria-label="A"
       transform="matrix(1.3333333,0,0,1.3333333,112.95733,15.26)" />
    <path
       id="path9"
       d="M 8.06998,0 H 29.27802"
       style="fill:none;stroke:#000000;stroke-width:0.3985;stroke-linecap:butt;stroke-linejoin:miter;stroke-miterlimit:10;stroke-dasharray:none;stroke-opacity:1"
       transform="matrix(1.3333333,0,0,-1.3333333,32.898667,48.517333)" />
    <path
       id="path10"
       d="M 3.7613,0 C 3.2994,0.1127 1.26901,0.75136 0,1.44638 V -1.44638 C 1.26901,-0.75136 3.2994,-0.1127 3.7613,0 Z"
       style="fill:#000000;fill-opacity:1;fill-rule:nonzero;stroke:#000000;stroke-width:0.3985;stroke-linecap:butt;stroke-linejoin:miter;stroke-miterlimit:10;stroke-dasharray:none;stroke-opacity:1"
       transform="matrix(1.3333333,0,0,-1.3333333,71.936027,48.517333)" />
    <path
       id="path11"
       d="M 51.17953,0 H 72.1857"
       style="fill:none;stroke:#000000;stroke-width:0.3985;stroke-linecap:butt;stroke-linejoin:miter;stroke-miterlimit:10;stroke-dasharray:none;stroke-opacity:1"
       transform="matrix(1.3333333,0,0,-1.3333333,32.898667,48.517333)" />
    <path
       id="path12"
       d="M 3.7613,0 C 3.2994,0.1127 1.26901,0.75136 0,1.44638 V -1.44638 C 1.26901,-0.75136 3.2994,-0.1127 3.7613,0 Z"
       style="fill:#000000;fill-opacity:1;fill-rule:nonzero;stroke:#000000;stroke-width:0.3985;stroke-linecap:butt;stroke-linejoin:miter;stroke-miterlimit:10;stroke-dasharray:none;stroke-opacity:1"
       transform="matrix(1.3333333,0,0,-1.3333333,129.14627,48.517333)" />
    <path
       id="path13"
       d="M 58.95572,21.9137 50.46538,10.59335"
       style="fill:none;stroke:#000000;stroke-width:0.3985;stroke-linecap:butt;stroke-linejoin:miter;stroke-miterlimit:10;stroke-dasharray:none;stroke-opacity:1"
       transform="matrix(1.3333333,0,0,-1.3333333,32.898667,48.517333)" />
    <path
       id="path14"
       d="M 3.7613,0 C 3.2994,0.1127 1.26901,0.75136 0,1.44638 V -1.44638 C 1.26901,-0.75136 3.2994,-0.1127 3.7613,0 Z"
       style="fill:#000000;fill-opacity:1;fill-rule:nonzero;stroke:#000000;stroke-width:0.3985;stroke-linecap:butt;stroke-linejoin:miter;stroke-miterlimit:10;stroke-dasharray:none;stroke-opacity:1"
       transform="matrix(-0.79998667,1.0666267,1.0666267,0.79998667,100.18584,34.39284)" />
    <path
       id="path15"
       d="M 68.60513,21.91382 77.32787,10.28346"
       style="fill:none;stroke:#000000;stroke-width:0.3985;stroke-linecap:butt;stroke-linejoin:miter;stroke-miterlimit:10;stroke-dasharray:none;stroke-opacity:1"
       transform="matrix(1.3333333,0,0,-1.3333333,32.898667,48.517333)" />
    <path
       id="path16"
       d="M 3.7613,0 C 3.2994,0.1127 1.26901,0.75136 0,1.44638 V -1.44638 C 1.26901,-0.75136 3.2994,-0.1127 3.7613,0 Z"
       style="fill:#000000;fill-opacity:1;fill-rule:nonzero;stroke:#000000;stroke-width:0.3985;stroke-linecap:butt;stroke-linejoin:miter;stroke-miterlimit:10;stroke-dasharray:none;stroke-opacity:1"
       transform="matrix(0.79994667,1.0666533,1.0666533,-0.79994667,136.00247,34.806053)" />
  </g>
</svg>
