<?xml version="1.0" encoding="UTF-8" standalone="no"?>
<!-- Created with Inkscape (http://www.inkscape.org/) -->

<svg
   version="1.1"
   id="svg1"
   width="157.52133"
   height="61.790668"
   viewBox="0 0 157.52133 61.790668"
   xmlns="http://www.w3.org/2000/svg"
   xmlns:svg="http://www.w3.org/2000/svg">
  <defs
     id="defs1" />
  <g
     id="g1">
    <path
       id="path1"
       d="M 8.02591,0 C 8.02591,4.43263 4.43263,8.02591 0,8.02591 -4.43263,8.02591 -8.02591,4.43263 -8.02591,0 c 0,-4.43263 3.59328,-8.02591 8.02591,-8.02591 4.43263,0 8.02591,3.59328 8.02591,8.02591 z"
       style="fill:#ffffff;fill-opacity:1;fill-rule:nonzero;stroke:#000000;stroke-width:0.3985;stroke-linecap:butt;stroke-linejoin:miter;stroke-miterlimit:10;stroke-dasharray:none;stroke-opacity:1"
       transform="matrix(1.3333333,0,0,-1.3333333,33.105333,49.341333)" />
    <path
       id="path2"
       d="m 7.0549219,-2.3211328 c 0.023437,-0.046875 0.046875,-0.1171875 0.046875,-0.140625 0,-0.011719 0,-0.1054688 -0.1171875,-0.1054688 -0.09375,0 -0.1054688,0.058594 -0.1289063,0.1171875 -0.6445312,1.47656254 -1.0195312,2.14453129 -2.71875,2.14453129 h -1.453125 c -0.140625,0 -0.1640625,0 -0.2226562,-0.0117188 -0.1054688,-0.0117188 -0.1289063,-0.0234375 -0.1289063,-0.10546875 0,-0.0234375 0,-0.046875 0.046875,-0.22265625 L 3.0588281,-3.3641016 h 0.984375 c 0.84375,0 0.84375,0.2109375 0.84375,0.4570313 0,0.070312 0,0.1875 -0.070312,0.4804687 -0.011719,0.058594 -0.023437,0.082031 -0.023437,0.1171875 0,0.046875 0.035156,0.1054688 0.1289063,0.1054688 0.082031,0 0.1054687,-0.046875 0.1523437,-0.1992188 l 0.5625,-2.3320312 c 0,-0.058594 -0.046875,-0.1054688 -0.1171875,-0.1054688 -0.09375,0 -0.1054687,0.058594 -0.140625,0.1757813 -0.2109375,0.7617187 -0.3867187,0.984375 -1.3007812,0.984375 h -0.9375 l 0.5976562,-2.4023438 c 0.082031,-0.3398437 0.09375,-0.3867187 0.5390625,-0.3867187 h 1.40625 c 1.2070313,0 1.5117188,0.2929687 1.5117188,1.1132812 0,0.234375 0,0.2578125 -0.046875,0.5273438 0,0.058594 -0.011719,0.1289062 -0.011719,0.1757812 0,0.046875 0.035156,0.1171875 0.1289063,0.1171875 0.1054687,0 0.1171875,-0.058594 0.140625,-0.2460937 L 7.6057031,-6.5047266 C 7.6291406,-6.7742578 7.5822656,-6.7742578 7.3361719,-6.7742578 H 2.2971094 c -0.1992188,0 -0.2929688,0 -0.2929688,0.1992187 0,0.1054688 0.09375,0.1054688 0.28125,0.1054688 0.3632813,0 0.6445313,0 0.6445313,0.1875 0,0.035156 0,0.058594 -0.046875,0.234375 l -1.3242188,5.27343749 c -0.09375,0.38671875 -0.1171875,0.46875 -0.90234373,0.46875 -0.1640625,0 -0.28125,0 -0.28125,0.1875 0,0.1171874975 0.09375,0.1171874975 0.28125,0.1171874975 H 5.8244531 c 0.234375,0 0.2460938,-0.0117187475 0.3164063,-0.1640624975 z m 0,0"
       style="fill:#000000;fill-opacity:1;fill-rule:nonzero;stroke:none"
       aria-label="E"
       transform="matrix(1.3333333,0,0,1.3333333,27.82,53.88)" />
    <path
       id="path3"
       d="m 72.24039,28.3468 c 0,4.67244 -3.78765,8.46008 -8.46009,8.46008 -4.67244,0 -8.46008,-3.78764 -8.46008,-8.46008 0,-4.67244 3.78764,-8.46008 8.46008,-8.46008 4.67244,0 8.46009,3.78764 8.46009,8.46008 z"
       style="fill:#ffffff;fill-opacity:1;fill-rule:nonzero;stroke:#000000;stroke-width:0.3985;stroke-linecap:butt;stroke-linejoin:miter;stroke-miterlimit:10;stroke-dasharray:none;stroke-opacity:1"
       transform="matrix(1.3333333,0,0,-1.3333333,33.105333,49.341333)" />
    <path
       id="path4"
       d="M 4.8279453,-4.0883906 3.9959141,-6.0805781 c -0.035156,-0.070312 -0.046875,-0.1171875 -0.046875,-0.1289063 0,-0.058594 0.1640625,-0.2460937 0.5859375,-0.28125 0.09375,-0.011719 0.1992187,-0.023437 0.1992187,-0.1875 0,-0.1289062 -0.1171875,-0.1289062 -0.1523437,-0.1289062 -0.4101563,0 -0.8320313,0.035156 -1.2539063,0.035156 -0.2460937,0 -0.8671875,-0.035156 -1.1132812,-0.035156 -0.058594,0 -0.1875,0 -0.1875,0.1992187 0,0.1171875 0.1054687,0.1171875 0.234375,0.1171875 0.5976562,0 0.65625,0.09375 0.75,0.3164063 l 1.171875,2.7773437 -2.0976563,2.2617188 -0.1289062,0.1054687 c -0.4921875,0.52734378 -0.96093754,0.69140628 -1.46484379,0.72656253 -0.12890625,0 -0.22265625,0 -0.22265625,0.19921875 0,0 0,0.10546875 0.12890625,0.10546875 0.3046875,0 0.63281249,-0.03515625 0.93749999,-0.03515625 0.3632813,0 0.7617188,0.03515625 1.1132813,0.03515625 0.058594,0 0.1757812,0 0.1757812,-0.19921875 0,-0.10546875 -0.09375,-0.10546875 -0.1171875,-0.10546875 -0.082031,-0.0117188 -0.3984375,-0.0351563 -0.3984375,-0.31640625 0,-0.15234375 0.1523438,-0.31640625 0.2695313,-0.44531248 l 1.0195312,-1.078125 0.890625,-0.9726563 1.0078125,2.37890628 c 0.046875,0.10546875 0.046875,0.1171875 0.046875,0.140625 0,0.0820313 -0.1875,0.24609375 -0.5742187,0.29296875 -0.1054688,0 -0.1992188,0.0117188 -0.1992188,0.1875 0,0.1171875 0.1171875,0.1171875 0.1523438,0.1171875 0.28125,0 0.9726562,-0.03515625 1.2539062,-0.03515625 0.2460938,0 0.8554688,0.03515625 1.1015625,0.03515625 0.070312,0 0.1992188,0 0.1992188,-0.1875 0,-0.1171875 -0.1054688,-0.1171875 -0.1875,-0.1171875 -0.6679688,-0.0117188 -0.6796875,-0.046875 -0.8554688,-0.4453125 C 5.8474766,-1.6743281 5.1795078,-3.2212031 4.9451328,-3.8188594 c 0.6796875,-0.703125 1.734375,-1.8867187 2.0507813,-2.1679687 0.28125,-0.234375 0.6679687,-0.4804688 1.265625,-0.5039063 0.1289062,-0.011719 0.2109375,-0.011719 0.2109375,-0.1992187 0,-0.011719 0,-0.1171875 -0.1289063,-0.1171875 -0.2929687,0 -0.6210937,0.035156 -0.9375,0.035156 -0.3632812,0 -0.7382812,-0.035156 -1.1015625,-0.035156 -0.058594,0 -0.1875,0 -0.1875,0.1992187 0,0.070312 0.046875,0.1054688 0.1171875,0.1171875 0.09375,0.011719 0.3984375,0.023437 0.3984375,0.3046875 0,0.140625 -0.1054687,0.2695313 -0.1875,0.3632813 z m 0,0"
       style="fill:#000000;fill-opacity:1;fill-rule:nonzero;stroke:none"
       aria-label="X"
       transform="matrix(1.3333333,0,0,1.3333333,112.12133,16.084)" />
    <path
       id="path5"
       d="m 51.65817,0 c 0,5.0468 -4.09115,9.13797 -9.13797,9.13797 -5.04681,0 -9.13797,-4.09117 -9.13797,-9.13797 0,-5.0468 4.09116,-9.13797 9.13797,-9.13797 5.04682,0 9.13797,4.09117 9.13797,9.13797 z"
       style="fill:#ffffff;fill-opacity:1;fill-rule:nonzero;stroke:#000000;stroke-width:0.3985;stroke-linecap:butt;stroke-linejoin:miter;stroke-miterlimit:10;stroke-dasharray:none;stroke-opacity:1"
       transform="matrix(1.3333333,0,0,-1.3333333,33.105333,49.341333)" />
    <path
       id="path6"
       d="m 9.1300078,-5.6492578 c 0.2578125,-0.4335938 0.4921875,-0.796875 1.1250002,-0.84375 0.08203,-0.011719 0.1875,-0.011719 0.1875,-0.1992188 0,-0.046875 -0.04687,-0.1171875 -0.117188,-0.1171875 -0.246093,0 -0.5273434,0.035156 -0.7734372,0.035156 -0.3398437,0 -0.703125,-0.035156 -1.03125,-0.035156 -0.058594,0 -0.1875,0 -0.1875,0.1992188 0,0.1054687 0.082031,0.1171875 0.140625,0.1171875 0.2460938,0.011719 0.5976563,0.082031 0.5976563,0.3867187 0,0.1054688 -0.058594,0.1875 -0.140625,0.328125 l -2.6835938,4.6875 -0.3632812,-4.9335937 c -0.011719,-0.1992188 -0.035156,-0.4570313 0.6914062,-0.46875 0.1640625,0 0.2695313,0 0.2695313,-0.1992188 0,-0.1054687 -0.1054688,-0.1171875 -0.1523438,-0.1171875 -0.3984375,0 -0.8085937,0.035156 -1.2070312,0.035156 -0.234375,0 -0.8203125,-0.035156 -1.0546875,-0.035156 -0.058594,0 -0.1875,0 -0.1875,0.1992188 0,0.1171875 0.1054687,0.1171875 0.2460937,0.1171875 0.4335938,0 0.5039063,0.058594 0.5273438,0.2460937 l 0.058594,0.7617188 -2.5195312,4.3945312 -0.3867188,-5.0507812 c 0,-0.1171875 0,-0.3398438 0.7617188,-0.3515625 0.09375,0 0.2109375,0 0.2109375,-0.1992188 0,-0.1171875 -0.1171875,-0.1171875 -0.140625,-0.1171875 -0.3984375,0 -0.8203125,0.035156 -1.2304688,0.035156 -0.3398437,0 -0.703125,-0.035156 -1.04296874,-0.035156 -0.046875,0 -0.17578125,0 -0.17578125,0.1992188 0,0.1171875 0.0820313,0.1171875 0.24609375,0.1171875 0.50390624,0 0.50390624,0.082031 0.52734374,0.3632812 l 0.4453125,6.09375004 c 0.011719,0.17578125 0.023437,0.2578125 0.1640625,0.2578125 0.1171875,0 0.1523438,-0.0585938 0.234375,-0.2109375 l 2.9296875,-5.08593754 0.375,5.03906254 c 0.011719,0.19921875 0.035156,0.2578125 0.1523438,0.2578125 0.1289062,0 0.1875,-0.10546875 0.2460937,-0.1875 z m 0,0"
       style="fill:#000000;fill-opacity:1;fill-rule:nonzero;stroke:none"
       aria-label="W"
       transform="matrix(1.3333333,0,0,1.3333333,82.604,53.88)" />
    <path
       id="path7"
       d="m 93.11304,0 c 0,4.45844 -3.61418,8.0726 -8.07262,8.0726 -4.45843,0 -8.07262,-3.61416 -8.07262,-8.0726 0,-4.45844 3.61419,-8.0726 8.07262,-8.0726 4.45844,0 8.07262,3.61416 8.07262,8.0726 z"
       style="fill:#ffffff;fill-opacity:1;fill-rule:nonzero;stroke:#000000;stroke-width:0.3985;stroke-linecap:butt;stroke-linejoin:miter;stroke-miterlimit:10;stroke-dasharray:none;stroke-opacity:1"
       transform="matrix(1.3333333,0,0,-1.3333333,33.105333,49.341333)" />
    <path
       id="path8"
       d="m 5.9415234,-5.6726953 0.140625,-0.140625 c 0.3046875,-0.2929688 0.6328125,-0.6328125 1.3125,-0.6796875 0.1054688,-0.011719 0.1992188,-0.011719 0.1992188,-0.1875 0,-0.082031 -0.058594,-0.1289063 -0.1289063,-0.1289063 -0.2578125,0 -0.5507812,0.035156 -0.8203125,0.035156 -0.328125,0 -0.6796875,-0.035156 -0.9960937,-0.035156 -0.058594,0 -0.1875,0 -0.1875,0.1992188 0,0.1054687 0.09375,0.1171875 0.1523437,0.1171875 0.070312,0 0.3515625,0.011719 0.3515625,0.2226562 0,0.1757813 -0.2226562,0.4335938 -0.2695312,0.4804688 l -2.3085938,2.6601562 -1.0898437,-2.953125 c -0.070312,-0.140625 -0.070312,-0.1640625 -0.070312,-0.1757812 0,-0.234375 0.4921875,-0.234375 0.5976562,-0.234375 0.1289063,0 0.234375,0 0.234375,-0.1992188 0,-0.1171875 -0.1171875,-0.1171875 -0.1523437,-0.1171875 -0.28125,0 -0.9726563,0.035156 -1.2539063,0.035156 -0.2460937,0 -0.86718746,-0.035156 -1.11328121,-0.035156 -0.0585938,0 -0.1875,0 -0.1875,0.1992188 0,0.1171875 0.09375,0.1171875 0.22265625,0.1171875 0.59765626,0 0.64453126,0.082031 0.72656246,0.3398437 l 1.2304688,3.2695313 c 0.011719,0.035156 0.035156,0.140625 0.035156,0.1757812 0,0.023437 -0.3984375,1.6289063 -0.4453125,1.80468754 -0.1289062,0.55078125 -0.140625,0.5859375 -0.9375,0.59765625 -0.18749996,0 -0.26953121,0 -0.26953121,0.19921875 0,0.1054687475 0.11718751,0.1054687475 0.14062501,0.1054687475 0.28125,0 0.9726562,-0.0351562475 1.2539062,-0.0351562475 0.28125,0 0.9960938,0.0351562475 1.2773438,0.0351562475 0.070312,0 0.1875,0 0.1875,-0.1992187475 0,-0.10546875 -0.082031,-0.10546875 -0.28125,-0.10546875 -0.011719,0 -0.1992188,0 -0.375,-0.0234375 -0.2109375,-0.0234375 -0.2695313,-0.0351563 -0.2695313,-0.1640625 0,-0.0703125 0.09375,-0.41015625 0.140625,-0.62109379 l 0.3515625,-1.40625 c 0.046875,-0.1875 0.058594,-0.2226562 0.140625,-0.3046875 z m 0,0"
       style="fill:#000000;fill-opacity:1;fill-rule:nonzero;stroke:none"
       aria-label="Y"
       transform="matrix(1.3333333,0,0,1.3333333,141.16,53.88)" />
    <path
       id="path9"
       d="M 58.58505,21.41945 50.87209,11.13564"
       style="fill:none;stroke:#000000;stroke-width:0.3985;stroke-linecap:butt;stroke-linejoin:miter;stroke-miterlimit:10;stroke-dasharray:none;stroke-opacity:1"
       transform="matrix(1.3333333,0,0,-1.3333333,33.105333,49.341333)" />
    <path
       id="path10"
       d="M 3.7613,0 C 3.2994,0.1127 1.26901,0.75136 0,1.44638 V -1.44638 C 1.26901,-0.75136 3.2994,-0.1127 3.7613,0 Z"
       style="fill:#000000;fill-opacity:1;fill-rule:nonzero;stroke:#000000;stroke-width:0.3985;stroke-linecap:butt;stroke-linejoin:miter;stroke-miterlimit:10;stroke-dasharray:none;stroke-opacity:1"
       transform="matrix(-0.79998667,1.0666267,1.0666267,0.79998667,100.93479,34.4938)" />
    <path
       id="path11"
       d="M 68.97583,21.41959 77.32787,10.28346"
       style="fill:none;stroke:#000000;stroke-width:0.3985;stroke-linecap:butt;stroke-linejoin:miter;stroke-miterlimit:10;stroke-dasharray:none;stroke-opacity:1"
       transform="matrix(1.3333333,0,0,-1.3333333,33.105333,49.341333)" />
    <path
       id="path12"
       d="M 3.7613,0 C 3.2994,0.1127 1.26901,0.75136 0,1.44638 V -1.44638 C 1.26901,-0.75136 3.2994,-0.1127 3.7613,0 Z"
       style="fill:#000000;fill-opacity:1;fill-rule:nonzero;stroke:#000000;stroke-width:0.3985;stroke-linecap:butt;stroke-linejoin:miter;stroke-miterlimit:10;stroke-dasharray:none;stroke-opacity:1"
       transform="matrix(0.79994667,1.0666533,1.0666533,-0.79994667,136.20913,35.630053)" />
    <path
       id="path13"
       d="M 8.22516,0 H 28.60013"
       style="fill:none;stroke:#000000;stroke-width:0.3985;stroke-linecap:butt;stroke-linejoin:miter;stroke-miterlimit:10;stroke-dasharray:none;stroke-opacity:1"
       transform="matrix(1.3333333,0,0,-1.3333333,33.105333,49.341333)" />
    <path
       id="path14"
       d="M 3.7613,0 C 3.2994,0.1127 1.26901,0.75136 0,1.44638 V -1.44638 C 1.26901,-0.75136 3.2994,-0.1127 3.7613,0 Z"
       style="fill:#000000;fill-opacity:1;fill-rule:nonzero;stroke:#000000;stroke-width:0.3985;stroke-linecap:butt;stroke-linejoin:miter;stroke-miterlimit:10;stroke-dasharray:none;stroke-opacity:1"
       transform="matrix(1.3333333,0,0,-1.3333333,71.23884,49.341333)" />
  </g>
</svg>
